<?xml version="1.0" encoding="UTF-8" standalone="no" ?>
<!DOCTYPE svg PUBLIC "-//W3C//DTD SVG 1.1//EN" "http://www.w3.org/Graphics/SVG/1.1/DTD/svg11.dtd">
<svg xmlns="http://www.w3.org/2000/svg" xmlns:xlink="http://www.w3.org/1999/xlink" version="1.1" width="1080" height="1080" viewBox="0 0 1080 1080" xml:space="preserve">
<desc>Created with Fabric.js 4.2.0</desc>
<defs>
</defs>
<rect x="0" y="0" width="100%" height="100%" fill="transparent"></rect>
<g transform="matrix(1 0 0 1 540 540)" id="810efd65-cc44-4e7d-bca2-b8abcb2ce38a"  >
<rect style="stroke: none; stroke-width: 1; stroke-dasharray: none; stroke-linecap: butt; stroke-dashoffset: 0; stroke-linejoin: miter; stroke-miterlimit: 4; fill: rgb(255,255,255); fill-rule: nonzero; opacity: 1;" vector-effect="non-scaling-stroke"  x="-540" y="-540" rx="0" ry="0" width="1080" height="1080" />
</g>
<g transform="matrix(Infinity NaN NaN Infinity 0 0)" id="5ea63e48-4cb8-4cb8-806a-91d5da2d42b6"  >
</g>
<g transform="matrix(12.72 0 0 11.36 1010.93 363.45)"  >
<circle style="stroke: rgb(196,206,254); stroke-width: 1; stroke-dasharray: none; stroke-linecap: round; stroke-dashoffset: 0; stroke-linejoin: round; stroke-miterlimit: 4; fill: none; fill-rule: nonzero; opacity: 1;" vector-effect="non-scaling-stroke"  cx="0" cy="0" r="2.97" />
</g>
<g transform="matrix(12.72 0 0 11.36 977.61 841.77)"  >
<circle style="stroke: none; stroke-width: 1; stroke-dasharray: none; stroke-linecap: butt; stroke-dashoffset: 0; stroke-linejoin: miter; stroke-miterlimit: 4; fill: rgb(227,231,254); fill-rule: nonzero; opacity: 1;" vector-effect="non-scaling-stroke"  cx="0" cy="0" r="2.87" />
</g>
<g transform="matrix(12.72 0 0 11.36 158.22 996.97)"  >
<circle style="stroke: none; stroke-width: 1; stroke-dasharray: none; stroke-linecap: butt; stroke-dashoffset: 0; stroke-linejoin: miter; stroke-miterlimit: 4; fill: rgb(227,231,254); fill-rule: nonzero; opacity: 1;" vector-effect="non-scaling-stroke"  cx="0" cy="0" r="1.72" />
</g>
<g transform="matrix(12.72 0 0 11.36 75.05 472.47)"  >
<rect style="stroke: none; stroke-width: 1; stroke-dasharray: none; stroke-linecap: butt; stroke-dashoffset: 0; stroke-linejoin: miter; stroke-miterlimit: 4; fill: rgb(227,231,254); fill-rule: nonzero; opacity: 1;" vector-effect="non-scaling-stroke"  x="-3.44" y="-1.145" rx="0" ry="0" width="6.88" height="2.29" />
</g>
<g transform="matrix(0 11.36 -12.72 0 75.11 472.41)"  >
<rect style="stroke: none; stroke-width: 1; stroke-dasharray: none; stroke-linecap: butt; stroke-dashoffset: 0; stroke-linejoin: miter; stroke-miterlimit: 4; fill: rgb(227,231,254); fill-rule: nonzero; opacity: 1;" vector-effect="non-scaling-stroke"  x="-3.44" y="-1.145" rx="0" ry="0" width="6.88" height="2.29" />
</g>
<g transform="matrix(23.9 0 0 19.81 540 126.92)"  >
<polygon style="stroke: none; stroke-width: 1; stroke-dasharray: none; stroke-linecap: butt; stroke-dashoffset: 0; stroke-linejoin: miter; stroke-miterlimit: 4; fill: rgb(101,118,255); fill-rule: nonzero; opacity: 1;" vector-effect="non-scaling-stroke"  points="-4.53,-4.53 -0.85,-3.2 2.18,-5.42 2.23,-1.57 5.43,0.73 1.78,1.78 0.73,5.43 -1.58,2.23 -5.43,2.19 -3.2,-0.84 -4.53,-4.53 " />
</g>
<g transform="matrix(12.72 0 0 11.36 373.02 209.16)"  >
<polygon style="stroke: none; stroke-width: 1; stroke-dasharray: none; stroke-linecap: butt; stroke-dashoffset: 0; stroke-linejoin: miter; stroke-miterlimit: 4; fill: rgb(179,194,255); fill-rule: nonzero; opacity: 1;" vector-effect="non-scaling-stroke"  points="-2.46,-2.46 -0.46,-1.74 1.19,-2.95 1.21,-0.86 2.95,0.4 0.97,0.97 0.4,2.95 -0.85,1.21 -2.95,1.19 -1.74,-0.46 -2.46,-2.46 " />
</g>
<g transform="matrix(12.72 0 0 11.36 659.99 206.95)"  >
<polygon style="stroke: none; stroke-width: 1; stroke-dasharray: none; stroke-linecap: butt; stroke-dashoffset: 0; stroke-linejoin: miter; stroke-miterlimit: 4; fill: rgb(179,194,255); fill-rule: nonzero; opacity: 1;" vector-effect="non-scaling-stroke"  points="-2.88,-2.88 -0.55,-2.03 1.38,-3.44 1.41,-1.01 3.43,0.46 1.13,1.13 0.45,3.44 -1,1.4 -3.44,1.38 -2.03,-0.54 -2.88,-2.88 " />
</g>
<g transform="matrix(12.72 0 0 11.36 535.86 813.28)"  >
<path style="stroke: rgb(101,118,255); stroke-width: 2; stroke-dasharray: none; stroke-linecap: round; stroke-dashoffset: 0; stroke-linejoin: round; stroke-miterlimit: 4; fill: rgb(255,255,255); fill-rule: nonzero; opacity: 1;" vector-effect="non-scaling-stroke"  transform=" translate(-44.67, -65.91)" d="M 49.89 64.32 C 49.904993630545505 64.06713441329882 49.79465983800985 63.82306976280307 49.59492454020069 63.66727623051193 C 49.39518924239153 63.51148269822078 49.13160582537442 63.463891925265365 48.89 63.53999999999999 C 47.43733956148554 63.917191834741374 45.949278764529545 64.14174154959734 44.45 64.21 C 42.94747636531722 64.14127729197278 41.456147966272106 63.91674020717273 40 63.54 C 39.75839417462558 63.46389192526537 39.49481075760848 63.51148269822079 39.295075459799314 63.66727623051194 C 39.09534016199015 63.82306976280308 38.985006369454496 64.06713441329882 39 64.32 L 39 67.32 C 39 67.87228474983078 39.4477152501692 68.32 40 68.32 L 48.81 68.32 C 49.3622847498308 68.32 49.81 67.87228474983078 49.81 67.32 Z M 50.35 64.14999999999999" stroke-linecap="round" />
</g>
<g transform="matrix(12.72 0 0 11.36 535.87 520.01)"  >
<path style="stroke: rgb(101,118,255); stroke-width: 2; stroke-dasharray: none; stroke-linecap: round; stroke-dashoffset: 0; stroke-linejoin: round; stroke-miterlimit: 4; fill: rgb(255,255,255); fill-rule: nonzero; opacity: 1;" vector-effect="non-scaling-stroke"  transform=" translate(-44.67, -40.1)" d="M 58.43 20.88 L 30.92 20.88 C 30.361348797611033 20.879896689373965 29.826139291832316 21.104521241733075 29.434893127693332 21.50329137056704 C 29.043646963554348 21.902061499401007 28.829256697910115 22.441452098684515 28.84 23 L 28.84 40.1 C 28.70609104179562 45.06725101116562 30.300101156960043 49.92703794764253 33.35 53.85000000000001 C 36.093053111135696 57.30517530268245 40.26335895127698 59.31911711787991 44.675 59.31911711787991 C 49.086641048723024 59.31911711787991 53.256946888864306 57.30517530268245 56 53.85 C 59.049898843039955 49.927037947642525 60.64390895820438 45.067251011165624 60.51 40.10000000000001 L 60.51 23 C 60.52074330208988 22.441452098684515 60.30635303644565 21.902061499401007 59.915106872306666 21.50329137056704 C 59.52386070816768 21.104521241733078 58.988651202388965 20.879896689373965 58.43 20.88 Z" stroke-linecap="round" />
</g>
<g transform="matrix(12.72 0 0 11.36 231.47 480.65)"  >
<path style="stroke: rgb(101,118,255); stroke-width: 2; stroke-dasharray: none; stroke-linecap: round; stroke-dashoffset: 0; stroke-linejoin: round; stroke-miterlimit: 4; fill: rgb(255,255,255); fill-rule: nonzero; opacity: 1;" vector-effect="non-scaling-stroke"  transform=" translate(-20.74, -36.64)" d="M 24.15 44.87 C 21.439999999999998 43.87 20.15 41.36 20.15 37.28 L 20.15 27.8 L 24.15 27.8 L 24.15 23.85 L 18.31 23.85 C 17.166770567850257 23.85 16.24 24.77677056785026 16.24 25.92 L 16.24 37.28 C 16.24 44.21 19.4 48.43 25.24 49.42 C 24.75218755511572 47.937838189692776 24.39745074681591 46.41514717293415 24.18 44.870000000000005 Z" stroke-linecap="round" />
</g>
<g transform="matrix(12.72 0 0 11.36 533.64 905.17)"  >
<path style="stroke: rgb(101,118,255); stroke-width: 1; stroke-dasharray: none; stroke-linecap: round; stroke-dashoffset: 0; stroke-linejoin: round; stroke-miterlimit: 4; fill: rgb(101,118,255); fill-rule: nonzero; opacity: 1;" vector-effect="non-scaling-stroke"  transform=" translate(-44.5, -74)" d="M 28.5 72.92 L 28.5 75.08 C 28.5 75.31 29.44 75.5 30.6 75.5 L 58.4 75.5 C 59.559999999999995 75.5 60.5 75.31 60.5 75.08 L 60.5 72.92 C 60.5 72.69 59.56 72.5 58.4 72.5 L 30.6 72.5 C 29.44 72.5 28.5 72.69 28.5 72.92 Z M 31.35 73.04" stroke-linecap="round" />
</g>
<g transform="matrix(12.72 0 0 11.36 533.64 973.34)"  >
<path style="stroke: rgb(101,118,255); stroke-width: 1; stroke-dasharray: none; stroke-linecap: round; stroke-dashoffset: 0; stroke-linejoin: round; stroke-miterlimit: 4; fill: rgb(101,118,255); fill-rule: nonzero; opacity: 1;" vector-effect="non-scaling-stroke"  transform=" translate(-44.5, -80)" d="M 28.5 78.92 L 28.5 81.08 C 28.5 81.31 29.44 81.5 30.6 81.5 L 58.4 81.5 C 59.559999999999995 81.5 60.5 81.31 60.5 81.08 L 60.5 78.92 C 60.5 78.69 59.56 78.5 58.4 78.5 L 30.6 78.5 C 29.44 78.5 28.5 78.69 28.5 78.92 Z M 31.35 79.04" stroke-linecap="round" />
</g>
<g transform="matrix(12.72 0 0 11.36 847.13 473.54)"  >
<path style="stroke: rgb(101,118,255); stroke-width: 2; stroke-dasharray: none; stroke-linecap: round; stroke-dashoffset: 0; stroke-linejoin: round; stroke-miterlimit: 4; fill: rgb(255,255,255); fill-rule: nonzero; opacity: 1;" vector-effect="non-scaling-stroke"  transform=" translate(-69.15, -36.01)" d="M 71.64 23.85 L 65.71 23.85 L 65.71 27.8 L 69.71 27.8 L 69.71 36.64 C 69.71 40.53 68.47 42.86 65.71 43.870000000000005 C 65.49176748058235 45.34309342797889 65.13690375176667 46.79267828248069 64.64999999999999 48.2 C 70.46 47.260000000000005 73.64999999999999 43.2 73.64999999999999 36.64 L 73.64999999999999 25.82 C 73.64999999999999 24.715430500338414 72.75456949966159 23.82 71.64999999999999 23.82 Z" stroke-linecap="round" />
</g>
<g transform="matrix(12.72 0 0 11.36 535.87 516.86)"  >
<path style="stroke: none; stroke-width: 1; stroke-dasharray: none; stroke-linecap: butt; stroke-dashoffset: 0; stroke-linejoin: miter; stroke-miterlimit: 4; fill: rgb(101,118,255); fill-rule: nonzero; opacity: 1;" vector-effect="non-scaling-stroke"  transform=" translate(-44.67, -39.82)" d="M 50.56 33.64 L 50.56 42.64 C 50.562557954514126 43.15852657690992 50.288029243168026 43.63895182176559 49.84 43.9 L 45.4 46.48 C 44.95136843870017 46.739017552683414 44.39863156129982 46.739017552683414 43.949999999999996 46.48 L 39.519999999999996 43.919999999999995 C 39.06658704897445 43.66304498910315 38.787396745389856 43.18115487606673 38.79 42.66 L 38.79 37.54 C 38.787396745389856 37.01884512393327 39.06658704897445 36.53695501089685 39.519999999999996 36.28 L 44 33.72 C 44.402166054106914 33.482501653127336 44.89497097607003 33.45636805878081 45.32 33.65 L 45.32 35.17 L 45.32 35.17 C 44.969832867897445 34.97018517219703 44.540167132102546 34.97018517219703 44.19 35.17 L 40.75 37.17 C 40.392369960149445 37.37372936368234 40.17682980204841 37.758622503148466 40.19 38.17 L 40.19 42.17 C 40.17905686736326 42.58083111546394 40.393999531393526 42.96465730123227 40.75 43.17 L 44.19 45.17 C 44.54016713210255 45.369814827802976 44.969832867897445 45.369814827802976 45.32 45.17 L 48.76 43.17 C 49.11600046860647 42.96465730123227 49.33094313263674 42.58083111546394 49.32 42.17 L 49.32 32.97 Z" stroke-linecap="round" />
</g>
<g transform="matrix(12.72 0 0 11.36 535.87 490.85)"  >
<path style="stroke: none; stroke-width: 1; stroke-dasharray: none; stroke-linecap: butt; stroke-dashoffset: 0; stroke-linejoin: miter; stroke-miterlimit: 4; fill: rgb(101,118,255); fill-rule: nonzero; opacity: 1;" vector-effect="non-scaling-stroke"  transform=" translate(-44.68, -37.53)" d="M 47.92 32.11 L 46.59 31.349999999999998 L 46.59 32.879999999999995 L 46.59 32.879999999999995 L 46.59 40.879999999999995 C 46.589497549990426 41.05248305952527 46.49834569973999 41.21199879746353 46.35 41.3 L 44.92 42.129999999999995 C 44.77 42.209999999999994 44.59 42.209999999999994 44.440000000000005 42.129999999999995 L 43 41.35 C 42.85165430026001 41.261998797463534 42.760502450009575 41.10248305952528 42.76 40.93 L 42.76 39.27 C 42.760502450009575 39.097516940474726 42.85165430026001 38.93800120253647 43 38.85 L 44.44 38 C 44.587316862262256 37.90990444987597 44.77268313773774 37.90990444987597 44.919999999999995 38 L 45.269999999999996 38.21 L 45.269999999999996 36.7 L 45.08 36.59 C 44.830542398136195 36.44105104905676 44.5194576018638 36.44105104905676 44.269999999999996 36.59 L 41.84 38 C 41.58940206436819 38.14465307059937 41.43359122784403 38.41067157198208 41.43000000000001 38.7 L 41.43000000000001 41.5 C 41.4315569469025 41.789890050795265 41.58791717375997 42.05684653567387 41.84 42.2 L 44.27 43.61 C 44.521672547828835 43.75068990136063 44.82832745217117 43.75068990136063 45.080000000000005 43.61 L 47.510000000000005 42.2 C 47.76208282624004 42.05684653567387 47.91844305309751 41.789890050795265 47.92 41.5 L 47.92 33.64 L 47.92 33.64 Z" stroke-linecap="round" />
</g>
<g transform="matrix(12.72 0 0 11.36 535.87 519.96)"  >
<path style="stroke: none; stroke-width: 1; stroke-dasharray: none; stroke-linecap: butt; stroke-dashoffset: 0; stroke-linejoin: miter; stroke-miterlimit: 4; fill: rgb(101,118,255); fill-rule: nonzero; opacity: 1;" vector-effect="non-scaling-stroke"  transform=" translate(-44.68, -40.09)" d="M 51.89 34.41 L 51.89 43.23 C 51.89098789936233 43.87103332206315 51.547215937211114 44.463085034656906 50.99 44.779999999999994 L 45.57 47.91 C 45.01617207260228 48.2297527029678 44.33382792739772 48.2297527029678 43.78 47.91 L 38.36 44.779999999999994 C 37.80278406278889 44.463085034656906 37.45901210063767 43.87103332206315 37.46 43.23 L 37.46 37 C 37.45901210063767 36.35896667793685 37.80278406278888 35.76691496534309 38.36 35.45 L 43.78 32.32 C 44.33382792739772 32.000247297032196 45.01617207260228 32.000247297032196 45.57 32.32 L 46.57 32.910000000000004 L 46.57 31.35 L 45.71 30.85 C 45.057721229435714 30.471009890291423 44.25227877056429 30.471009890291423 43.6 30.85 L 37.2 34.56 C 36.54440686771764 34.936120682761036 36.140068508344726 35.63417652960296 36.14 36.39 L 36.14 43.81 C 36.140068508344726 44.56582347039704 36.54440686771764 45.26387931723897 37.2 45.64 L 43.620000000000005 49.34 C 44.27227877056429 49.71899010970858 45.07772122943572 49.71899010970858 45.730000000000004 49.34 L 52.150000000000006 45.64 C 52.80559313228237 45.26387931723897 53.20993149165528 44.56582347039704 53.21000000000001 43.81 L 53.21000000000001 35.19 Z" stroke-linecap="round" />
</g>
<g transform="matrix(12.71 0 0 11.35 530.46 1043.53)"  >
<path style="stroke: rgb(101,118,255); stroke-width: 1; stroke-dasharray: none; stroke-linecap: round; stroke-dashoffset: 0; stroke-linejoin: round; stroke-miterlimit: 4; fill: rgb(101,118,255); fill-rule: nonzero; opacity: 1;" vector-effect="non-scaling-stroke"  transform=" translate(-44.5, -80)" d="M 28.5 78.92 L 28.5 81.08 C 28.5 81.31 29.44 81.5 30.6 81.5 L 58.4 81.5 C 59.559999999999995 81.5 60.5 81.31 60.5 81.08 L 60.5 78.92 C 60.5 78.69 59.56 78.5 58.4 78.5 L 30.6 78.5 C 29.44 78.5 28.5 78.69 28.5 78.92 Z M 31.35 79.04" stroke-linecap="round" />
</g>
<g transform="matrix(21.01 0 0 18.77 211.85 772.22)"  >
<polygon style="stroke: none; stroke-width: 1; stroke-dasharray: none; stroke-linecap: butt; stroke-dashoffset: 0; stroke-linejoin: miter; stroke-miterlimit: 4; fill: rgb(101,118,255); fill-rule: nonzero; opacity: 1;" vector-effect="non-scaling-stroke"  points="-4.53,-4.53 -0.85,-3.2 2.18,-5.42 2.23,-1.57 5.43,0.73 1.78,1.78 0.73,5.43 -1.58,2.23 -5.43,2.19 -3.2,-0.84 -4.53,-4.53 " />
</g>
<g transform="matrix(21.01 0 0 18.77 817.92 780.17)"  >
<polygon style="stroke: none; stroke-width: 1; stroke-dasharray: none; stroke-linecap: butt; stroke-dashoffset: 0; stroke-linejoin: miter; stroke-miterlimit: 4; fill: rgb(101,118,255); fill-rule: nonzero; opacity: 1;" vector-effect="non-scaling-stroke"  points="-4.53,-4.53 -0.85,-3.2 2.18,-5.42 2.23,-1.57 5.43,0.73 1.78,1.78 0.73,5.43 -1.58,2.23 -5.43,2.19 -3.2,-0.84 -4.53,-4.53 " />
</g>
</svg>